<?xml version="1.0" encoding="UTF-8" standalone="no"?>
<!DOCTYPE svg PUBLIC "-//W3C//DTD SVG 1.1//EN"
 "http://www.w3.org/Graphics/SVG/1.1/DTD/svg11.dtd">
<!-- Generated by graphviz version 12.2.1 (20241206.2353)
 -->
<!-- Title: ExampleGraph Pages: 1 -->
<svg width="1168pt" height="476pt"
 viewBox="0.00 0.00 1168.25 476.00" xmlns="http://www.w3.org/2000/svg" xmlns:xlink="http://www.w3.org/1999/xlink">
<g id="graph0" class="graph" transform="scale(1 1) rotate(0) translate(4 472)">
<title>ExampleGraph</title>
<polygon fill="white" stroke="none" points="-4,4 -4,-472 1164.25,-472 1164.25,4 -4,4"/>
<!-- Second (1,0,0) -->
<g id="node1" class="node">
<title>Second (1,0,0)</title>
<ellipse fill="none" stroke="black" cx="142.29" cy="-306" rx="65.68" ry="18"/>
<text text-anchor="middle" x="142.29" y="-300.95" font-family="Times,serif" font-size="14.00">Second (1,0,0)</text>
</g>
<!-- Second1 (1,0,1) -->
<g id="node2" class="node">
<title>Second1 (1,0,1)</title>
<ellipse fill="none" stroke="black" cx="70.29" cy="-234" rx="70.29" ry="18"/>
<text text-anchor="middle" x="70.29" y="-228.95" font-family="Times,serif" font-size="14.00">Second1 (1,0,1)</text>
</g>
<!-- Second (1,0,0)&#45;&gt;Second1 (1,0,1) -->
<g id="edge1" class="edge">
<title>Second (1,0,0)&#45;&gt;Second1 (1,0,1)</title>
<path fill="none" stroke="black" d="M125.23,-288.41C116.26,-279.69 105.1,-268.85 95.19,-259.21"/>
<polygon fill="black" stroke="black" points="97.92,-256.99 88.31,-252.53 93.04,-262.01 97.92,-256.99"/>
</g>
<!-- Title (1,1,0) -->
<g id="node6" class="node">
<title>Title (1,1,0)</title>
<ellipse fill="none" stroke="black" cx="214.29" cy="-234" rx="55.96" ry="18"/>
<text text-anchor="middle" x="214.29" y="-228.95" font-family="Times,serif" font-size="14.00">Title (1,1,0)</text>
</g>
<!-- Second (1,0,0)&#45;&gt;Title (1,1,0) -->
<g id="edge4" class="edge">
<title>Second (1,0,0)&#45;&gt;Title (1,1,0)</title>
<path fill="none" stroke="black" d="M159.35,-288.41C168.32,-279.69 179.48,-268.85 189.39,-259.21"/>
<polygon fill="black" stroke="black" points="191.53,-262.01 196.26,-252.53 186.65,-256.99 191.53,-262.01"/>
</g>
<!-- First (0,0,0) -->
<g id="node3" class="node">
<title>First (0,0,0)</title>
<ellipse fill="none" stroke="black" cx="628.29" cy="-378" rx="55.45" ry="18"/>
<text text-anchor="middle" x="628.29" y="-372.95" font-family="Times,serif" font-size="14.00">First (0,0,0)</text>
</g>
<!-- First (0,0,0)&#45;&gt;Second (1,0,0) -->
<g id="edge2" class="edge">
<title>First (0,0,0)&#45;&gt;Second (1,0,0)</title>
<path fill="none" stroke="black" d="M575.82,-371.84C497.45,-363.77 345.33,-346.71 217.29,-324 212.14,-323.09 206.8,-322.05 201.47,-320.96"/>
<polygon fill="black" stroke="black" points="202.55,-317.61 192.05,-318.96 201.1,-324.46 202.55,-317.61"/>
</g>
<!-- Address capitalize&#45; {0}, capitalizeAll&#45;{1},uppercase&#45;{2},lowercase&#45;{3},nesting&#45;{4} ,nesting&#45;{5} (0,0,1) -->
<g id="node8" class="node">
<title>Address capitalize&#45; {0}, capitalizeAll&#45;{1},uppercase&#45;{2},lowercase&#45;{3},nesting&#45;{4} ,nesting&#45;{5} (0,0,1)</title>
<ellipse fill="none" stroke="black" cx="628.29" cy="-306" rx="402.45" ry="18"/>
<text text-anchor="middle" x="628.29" y="-300.95" font-family="Times,serif" font-size="14.00">Address capitalize&#45; {0}, capitalizeAll&#45;{1},uppercase&#45;{2},lowercase&#45;{3},nesting&#45;{4} ,nesting&#45;{5} (0,0,1)</text>
</g>
<!-- First (0,0,0)&#45;&gt;Address capitalize&#45; {0}, capitalizeAll&#45;{1},uppercase&#45;{2},lowercase&#45;{3},nesting&#45;{4} ,nesting&#45;{5} (0,0,1) -->
<g id="edge7" class="edge">
<title>First (0,0,0)&#45;&gt;Address capitalize&#45; {0}, capitalizeAll&#45;{1},uppercase&#45;{2},lowercase&#45;{3},nesting&#45;{4} ,nesting&#45;{5} (0,0,1)</title>
<path fill="none" stroke="black" d="M628.29,-359.7C628.29,-352.41 628.29,-343.73 628.29,-335.54"/>
<polygon fill="black" stroke="black" points="631.79,-335.62 628.29,-325.62 624.79,-335.62 631.79,-335.62"/>
</g>
<!-- Title (0,1,0) -->
<g id="node10" class="node">
<title>Title (0,1,0)</title>
<ellipse fill="none" stroke="black" cx="1104.29" cy="-306" rx="55.96" ry="18"/>
<text text-anchor="middle" x="1104.29" y="-300.95" font-family="Times,serif" font-size="14.00">Title (0,1,0)</text>
</g>
<!-- First (0,0,0)&#45;&gt;Title (0,1,0) -->
<g id="edge8" class="edge">
<title>First (0,0,0)&#45;&gt;Title (0,1,0)</title>
<path fill="none" stroke="black" d="M681.51,-372.33C760.2,-364.92 911.99,-348.75 1039.29,-324 1043.55,-323.17 1047.94,-322.23 1052.34,-321.21"/>
<polygon fill="black" stroke="black" points="1052.84,-324.69 1061.74,-318.94 1051.19,-317.89 1052.84,-324.69"/>
</g>
<!-- choiceTest (0,0,3) -->
<g id="node4" class="node">
<title>choiceTest (0,0,3)</title>
<ellipse fill="none" stroke="black" cx="628.29" cy="-162" rx="78.48" ry="18"/>
<text text-anchor="middle" x="628.29" y="-156.95" font-family="Times,serif" font-size="14.00">choiceTest (0,0,3)</text>
</g>
<!-- Title1 (0,0,4) -->
<g id="node5" class="node">
<title>Title1 (0,0,4)</title>
<ellipse fill="none" stroke="black" cx="628.29" cy="-90" rx="60.56" ry="18"/>
<text text-anchor="middle" x="628.29" y="-84.95" font-family="Times,serif" font-size="14.00">Title1 (0,0,4)</text>
</g>
<!-- choiceTest (0,0,3)&#45;&gt;Title1 (0,0,4) -->
<g id="edge3" class="edge">
<title>choiceTest (0,0,3)&#45;&gt;Title1 (0,0,4)</title>
<path fill="none" stroke="black" d="M628.29,-143.7C628.29,-136.41 628.29,-127.73 628.29,-119.54"/>
<polygon fill="black" stroke="black" points="631.79,-119.62 628.29,-109.62 624.79,-119.62 631.79,-119.62"/>
</g>
<!-- Enter port (0,0,5) -->
<g id="node11" class="node">
<title>Enter port (0,0,5)</title>
<ellipse fill="none" stroke="black" cx="628.29" cy="-18" rx="75.92" ry="18"/>
<text text-anchor="middle" x="628.29" y="-12.95" font-family="Times,serif" font-size="14.00">Enter port (0,0,5)</text>
</g>
<!-- Title1 (0,0,4)&#45;&gt;Enter port (0,0,5) -->
<g id="edge9" class="edge">
<title>Title1 (0,0,4)&#45;&gt;Enter port (0,0,5)</title>
<path fill="none" stroke="black" d="M628.29,-71.7C628.29,-64.41 628.29,-55.73 628.29,-47.54"/>
<polygon fill="black" stroke="black" points="631.79,-47.62 628.29,-37.62 624.79,-47.62 631.79,-47.62"/>
</g>
<!-- taskList -->
<g id="node7" class="node">
<title>taskList</title>
<ellipse fill="none" stroke="black" cx="628.29" cy="-450" rx="40.09" ry="18"/>
<text text-anchor="middle" x="628.29" y="-444.95" font-family="Times,serif" font-size="14.00">taskList</text>
</g>
<!-- taskList&#45;&gt;First (0,0,0) -->
<g id="edge5" class="edge">
<title>taskList&#45;&gt;First (0,0,0)</title>
<path fill="none" stroke="black" d="M628.29,-431.7C628.29,-424.41 628.29,-415.73 628.29,-407.54"/>
<polygon fill="black" stroke="black" points="631.79,-407.62 628.29,-397.62 624.79,-407.62 631.79,-407.62"/>
</g>
<!-- Address 2, {0} (0,0,2) -->
<g id="node9" class="node">
<title>Address 2, {0} (0,0,2)</title>
<ellipse fill="none" stroke="black" cx="628.29" cy="-234" rx="94.86" ry="18"/>
<text text-anchor="middle" x="628.29" y="-228.95" font-family="Times,serif" font-size="14.00">Address 2, {0} (0,0,2)</text>
</g>
<!-- Address capitalize&#45; {0}, capitalizeAll&#45;{1},uppercase&#45;{2},lowercase&#45;{3},nesting&#45;{4} ,nesting&#45;{5} (0,0,1)&#45;&gt;Address 2, {0} (0,0,2) -->
<g id="edge6" class="edge">
<title>Address capitalize&#45; {0}, capitalizeAll&#45;{1},uppercase&#45;{2},lowercase&#45;{3},nesting&#45;{4} ,nesting&#45;{5} (0,0,1)&#45;&gt;Address 2, {0} (0,0,2)</title>
<path fill="none" stroke="black" d="M628.29,-287.7C628.29,-280.41 628.29,-271.73 628.29,-263.54"/>
<polygon fill="black" stroke="black" points="631.79,-263.62 628.29,-253.62 624.79,-263.62 631.79,-263.62"/>
</g>
<!-- Address 2, {0} (0,0,2)&#45;&gt;choiceTest (0,0,3) -->
<g id="edge10" class="edge">
<title>Address 2, {0} (0,0,2)&#45;&gt;choiceTest (0,0,3)</title>
<path fill="none" stroke="black" d="M628.29,-215.7C628.29,-208.41 628.29,-199.73 628.29,-191.54"/>
<polygon fill="black" stroke="black" points="631.79,-191.62 628.29,-181.62 624.79,-191.62 631.79,-191.62"/>
</g>
</g>
</svg>
