<?xml version="1.0" encoding="UTF-8" standalone="no"?>
<!DOCTYPE svg PUBLIC "-//W3C//DTD SVG 1.1//EN"
 "http://www.w3.org/Graphics/SVG/1.1/DTD/svg11.dtd">
<!-- Generated by graphviz version 12.2.1 (20241206.2353)
 -->
<!-- Title: ExampleGraph Pages: 1 -->
<svg width="2655pt" height="332pt"
 viewBox="0.00 0.00 2654.69 332.00" xmlns="http://www.w3.org/2000/svg" xmlns:xlink="http://www.w3.org/1999/xlink">
<g id="graph0" class="graph" transform="scale(1 1) rotate(0) translate(4 328)">
<title>ExampleGraph</title>
<polygon fill="white" stroke="none" points="-4,4 -4,-328 2650.69,-328 2650.69,4 -4,4"/>
<!-- Simple(country) -->
<g id="node1" class="node">
<title>Simple(country)</title>
<ellipse fill="none" stroke="black" cx="132.48" cy="-162" rx="71.82" ry="18"/>
<text text-anchor="middle" x="132.48" y="-156.95" font-family="Times,serif" font-size="14.00">Simple(country)</text>
</g>
<!-- Expr(Constant(0)) -->
<g id="node2" class="node">
<title>Expr(Constant(0))</title>
<ellipse fill="none" stroke="black" cx="78.48" cy="-90" rx="78.48" ry="18"/>
<text text-anchor="middle" x="78.48" y="-84.95" font-family="Times,serif" font-size="14.00">Expr(Constant(0))</text>
</g>
<!-- Simple(country)&#45;&gt;Expr(Constant(0)) -->
<g id="edge1" class="edge">
<title>Simple(country)&#45;&gt;Expr(Constant(0))</title>
<path fill="none" stroke="black" d="M119.41,-144.05C113.1,-135.89 105.41,-125.91 98.4,-116.82"/>
<polygon fill="black" stroke="black" points="101.23,-114.77 92.35,-108.99 95.69,-119.04 101.23,-114.77"/>
</g>
<!-- Expr(FormCtx(dutyType)) -->
<g id="node8" class="node">
<title>Expr(FormCtx(dutyType))</title>
<ellipse fill="none" stroke="black" cx="341.48" cy="-90" rx="110.21" ry="18"/>
<text text-anchor="middle" x="341.48" y="-84.95" font-family="Times,serif" font-size="14.00">Expr(FormCtx(dutyType))</text>
</g>
<!-- Simple(country)&#45;&gt;Expr(FormCtx(dutyType)) -->
<g id="edge22" class="edge">
<title>Simple(country)&#45;&gt;Expr(FormCtx(dutyType))</title>
<path fill="none" stroke="black" d="M174.27,-147C205.79,-136.44 249.4,-121.84 284.17,-110.19"/>
<polygon fill="black" stroke="black" points="284.85,-113.66 293.22,-107.16 282.63,-107.02 284.85,-113.66"/>
</g>
<!-- Simple(address2) -->
<g id="node3" class="node">
<title>Simple(address2)</title>
<ellipse fill="none" stroke="black" cx="1444.48" cy="-306" rx="75.92" ry="18"/>
<text text-anchor="middle" x="1444.48" y="-300.95" font-family="Times,serif" font-size="14.00">Simple(address2)</text>
</g>
<!-- Expr(AddressLens(address1,Line2)) -->
<g id="node4" class="node">
<title>Expr(AddressLens(address1,Line2))</title>
<ellipse fill="none" stroke="black" cx="802.48" cy="-234" rx="145.52" ry="18"/>
<text text-anchor="middle" x="802.48" y="-228.95" font-family="Times,serif" font-size="14.00">Expr(AddressLens(address1,Line2))</text>
</g>
<!-- Simple(address2)&#45;&gt;Expr(AddressLens(address1,Line2)) -->
<g id="edge2" class="edge">
<title>Simple(address2)&#45;&gt;Expr(AddressLens(address1,Line2))</title>
<path fill="none" stroke="black" d="M1376.72,-297.64C1282.64,-287.43 1107.12,-268.35 957.48,-252 945.3,-250.67 932.59,-249.28 919.91,-247.89"/>
<polygon fill="black" stroke="black" points="920.61,-244.45 910.29,-246.84 919.85,-251.4 920.61,-244.45"/>
</g>
<!-- Expr(AddressLens(address1,Postcode)) -->
<g id="node13" class="node">
<title>Expr(AddressLens(address1,Postcode))</title>
<ellipse fill="none" stroke="black" cx="1123.48" cy="-234" rx="157.3" ry="18"/>
<text text-anchor="middle" x="1123.48" y="-228.95" font-family="Times,serif" font-size="14.00">Expr(AddressLens(address1,Postcode))</text>
</g>
<!-- Simple(address2)&#45;&gt;Expr(AddressLens(address1,Postcode)) -->
<g id="edge8" class="edge">
<title>Simple(address2)&#45;&gt;Expr(AddressLens(address1,Postcode))</title>
<path fill="none" stroke="black" d="M1390.02,-293.13C1339.44,-282.1 1263.43,-265.52 1205.5,-252.89"/>
<polygon fill="black" stroke="black" points="1206.54,-249.53 1196.02,-250.82 1205.04,-256.37 1206.54,-249.53"/>
</g>
<!-- Expr(AddressLens(address1,Line1)) -->
<g id="node14" class="node">
<title>Expr(AddressLens(address1,Line1))</title>
<ellipse fill="none" stroke="black" cx="1444.48" cy="-234" rx="145.52" ry="18"/>
<text text-anchor="middle" x="1444.48" y="-228.95" font-family="Times,serif" font-size="14.00">Expr(AddressLens(address1,Line1))</text>
</g>
<!-- Simple(address2)&#45;&gt;Expr(AddressLens(address1,Line1)) -->
<g id="edge9" class="edge">
<title>Simple(address2)&#45;&gt;Expr(AddressLens(address1,Line1))</title>
<path fill="none" stroke="black" d="M1444.48,-287.7C1444.48,-280.41 1444.48,-271.73 1444.48,-263.54"/>
<polygon fill="black" stroke="black" points="1447.98,-263.62 1444.48,-253.62 1440.98,-263.62 1447.98,-263.62"/>
</g>
<!-- Expr(AddressLens(address1,Line4)) -->
<g id="node15" class="node">
<title>Expr(AddressLens(address1,Line4))</title>
<ellipse fill="none" stroke="black" cx="1753.48" cy="-234" rx="145.52" ry="18"/>
<text text-anchor="middle" x="1753.48" y="-228.95" font-family="Times,serif" font-size="14.00">Expr(AddressLens(address1,Line4))</text>
</g>
<!-- Simple(address2)&#45;&gt;Expr(AddressLens(address1,Line4)) -->
<g id="edge12" class="edge">
<title>Simple(address2)&#45;&gt;Expr(AddressLens(address1,Line4))</title>
<path fill="none" stroke="black" d="M1497.95,-292.89C1546.67,-281.85 1619.26,-265.4 1674.64,-252.86"/>
<polygon fill="black" stroke="black" points="1675.37,-256.28 1684.35,-250.66 1673.82,-249.46 1675.37,-256.28"/>
</g>
<!-- Expr(AddressLens(address1,Line3)) -->
<g id="node20" class="node">
<title>Expr(AddressLens(address1,Line3))</title>
<ellipse fill="none" stroke="black" cx="2062.48" cy="-234" rx="145.52" ry="18"/>
<text text-anchor="middle" x="2062.48" y="-228.95" font-family="Times,serif" font-size="14.00">Expr(AddressLens(address1,Line3))</text>
</g>
<!-- Simple(address2)&#45;&gt;Expr(AddressLens(address1,Line3)) -->
<g id="edge20" class="edge">
<title>Simple(address2)&#45;&gt;Expr(AddressLens(address1,Line3))</title>
<path fill="none" stroke="black" d="M1511.79,-297.38C1616.1,-285.56 1818.1,-262.68 1946.32,-248.16"/>
<polygon fill="black" stroke="black" points="1946.67,-251.64 1956.22,-247.04 1945.89,-244.68 1946.67,-251.64"/>
</g>
<!-- Simple(file111) -->
<g id="node5" class="node">
<title>Simple(file111)</title>
<ellipse fill="none" stroke="black" cx="361.48" cy="-162" rx="69.78" ry="18"/>
<text text-anchor="middle" x="361.48" y="-156.95" font-family="Times,serif" font-size="14.00">Simple(file111)</text>
</g>
<!-- Expr(Constant(1)) -->
<g id="node6" class="node">
<title>Expr(Constant(1))</title>
<ellipse fill="none" stroke="black" cx="548.48" cy="-90" rx="78.48" ry="18"/>
<text text-anchor="middle" x="548.48" y="-84.95" font-family="Times,serif" font-size="14.00">Expr(Constant(1))</text>
</g>
<!-- Simple(file111)&#45;&gt;Expr(Constant(1)) -->
<g id="edge3" class="edge">
<title>Simple(file111)&#45;&gt;Expr(Constant(1))</title>
<path fill="none" stroke="black" d="M399.77,-146.67C428.16,-136.04 467.13,-121.45 498.05,-109.88"/>
<polygon fill="black" stroke="black" points="499.07,-113.23 507.2,-106.45 496.61,-106.68 499.07,-113.23"/>
</g>
<!-- Simple(file111)&#45;&gt;Expr(FormCtx(dutyType)) -->
<g id="edge10" class="edge">
<title>Simple(file111)&#45;&gt;Expr(FormCtx(dutyType))</title>
<path fill="none" stroke="black" d="M356.53,-143.7C354.4,-136.24 351.85,-127.32 349.47,-118.97"/>
<polygon fill="black" stroke="black" points="352.89,-118.21 346.78,-109.56 346.16,-120.14 352.89,-118.21"/>
</g>
<!-- Simple(port1) -->
<g id="node7" class="node">
<title>Simple(port1)</title>
<ellipse fill="none" stroke="black" cx="132.48" cy="-306" rx="63.12" ry="18"/>
<text text-anchor="middle" x="132.48" y="-300.95" font-family="Times,serif" font-size="14.00">Simple(port1)</text>
</g>
<!-- Simple(port1)&#45;&gt;Expr(Constant(0)) -->
<g id="edge17" class="edge">
<title>Simple(port1)&#45;&gt;Expr(Constant(0))</title>
<path fill="none" stroke="black" d="M82.93,-294.49C59.76,-286.82 34.29,-273.81 20.48,-252 -7.12,-208.4 29.42,-149.86 55.78,-116.72"/>
<polygon fill="black" stroke="black" points="58.27,-119.19 61.92,-109.24 52.86,-114.75 58.27,-119.19"/>
</g>
<!-- Simple(port1)&#45;&gt;Expr(FormCtx(dutyType)) -->
<g id="edge4" class="edge">
<title>Simple(port1)&#45;&gt;Expr(FormCtx(dutyType))</title>
<path fill="none" stroke="black" d="M177.13,-292.96C200,-284.76 226.69,-271.73 244.48,-252 278.55,-214.2 254.23,-186.32 282.48,-144 289.62,-133.3 299.4,-123.36 308.95,-115.04"/>
<polygon fill="black" stroke="black" points="310.95,-117.93 316.41,-108.85 306.48,-112.54 310.95,-117.93"/>
</g>
<!-- Expr(FormCtx(country)) -->
<g id="node11" class="node">
<title>Expr(FormCtx(country))</title>
<ellipse fill="none" stroke="black" cx="132.48" cy="-234" rx="103.04" ry="18"/>
<text text-anchor="middle" x="132.48" y="-228.95" font-family="Times,serif" font-size="14.00">Expr(FormCtx(country))</text>
</g>
<!-- Simple(port1)&#45;&gt;Expr(FormCtx(country)) -->
<g id="edge15" class="edge">
<title>Simple(port1)&#45;&gt;Expr(FormCtx(country))</title>
<path fill="none" stroke="black" d="M132.48,-287.7C132.48,-280.41 132.48,-271.73 132.48,-263.54"/>
<polygon fill="black" stroke="black" points="135.98,-263.62 132.48,-253.62 128.98,-263.62 135.98,-263.62"/>
</g>
<!-- Simple(dutyType) -->
<g id="node12" class="node">
<title>Simple(dutyType)</title>
<ellipse fill="none" stroke="black" cx="341.48" cy="-18" rx="78.99" ry="18"/>
<text text-anchor="middle" x="341.48" y="-12.95" font-family="Times,serif" font-size="14.00">Simple(dutyType)</text>
</g>
<!-- Expr(FormCtx(dutyType))&#45;&gt;Simple(dutyType) -->
<g id="edge7" class="edge">
<title>Expr(FormCtx(dutyType))&#45;&gt;Simple(dutyType)</title>
<path fill="none" stroke="black" d="M341.48,-71.7C341.48,-64.41 341.48,-55.73 341.48,-47.54"/>
<polygon fill="black" stroke="black" points="344.98,-47.62 341.48,-37.62 337.98,-47.62 344.98,-47.62"/>
</g>
<!-- Expr(FormCtx(1_licence)) -->
<g id="node9" class="node">
<title>Expr(FormCtx(1_licence))</title>
<ellipse fill="none" stroke="black" cx="528.48" cy="-234" rx="110.21" ry="18"/>
<text text-anchor="middle" x="528.48" y="-228.95" font-family="Times,serif" font-size="14.00">Expr(FormCtx(1_licence))</text>
</g>
<!-- Simple(1_licence) -->
<g id="node10" class="node">
<title>Simple(1_licence)</title>
<ellipse fill="none" stroke="black" cx="528.48" cy="-162" rx="78.99" ry="18"/>
<text text-anchor="middle" x="528.48" y="-156.95" font-family="Times,serif" font-size="14.00">Simple(1_licence)</text>
</g>
<!-- Expr(FormCtx(1_licence))&#45;&gt;Simple(1_licence) -->
<g id="edge5" class="edge">
<title>Expr(FormCtx(1_licence))&#45;&gt;Simple(1_licence)</title>
<path fill="none" stroke="black" d="M528.48,-215.7C528.48,-208.41 528.48,-199.73 528.48,-191.54"/>
<polygon fill="black" stroke="black" points="531.98,-191.62 528.48,-181.62 524.98,-191.62 531.98,-191.62"/>
</g>
<!-- Simple(1_licence)&#45;&gt;Expr(Constant(1)) -->
<g id="edge18" class="edge">
<title>Simple(1_licence)&#45;&gt;Expr(Constant(1))</title>
<path fill="none" stroke="black" d="M533.42,-143.7C535.55,-136.24 538.1,-127.32 540.49,-118.97"/>
<polygon fill="black" stroke="black" points="543.79,-120.14 543.17,-109.56 537.06,-118.21 543.79,-120.14"/>
</g>
<!-- Simple(1_licence)&#45;&gt;Expr(FormCtx(dutyType)) -->
<g id="edge11" class="edge">
<title>Simple(1_licence)&#45;&gt;Expr(FormCtx(dutyType))</title>
<path fill="none" stroke="black" d="M488.82,-146.15C461.51,-135.93 424.91,-122.23 395.01,-111.04"/>
<polygon fill="black" stroke="black" points="396.34,-107.8 385.75,-107.57 393.89,-114.36 396.34,-107.8"/>
</g>
<!-- Expr(FormCtx(country))&#45;&gt;Simple(country) -->
<g id="edge6" class="edge">
<title>Expr(FormCtx(country))&#45;&gt;Simple(country)</title>
<path fill="none" stroke="black" d="M132.48,-215.7C132.48,-208.41 132.48,-199.73 132.48,-191.54"/>
<polygon fill="black" stroke="black" points="135.98,-191.62 132.48,-181.62 128.98,-191.62 135.98,-191.62"/>
</g>
<!-- Simple(licence) -->
<g id="node16" class="node">
<title>Simple(licence)</title>
<ellipse fill="none" stroke="black" cx="528.48" cy="-306" rx="69.78" ry="18"/>
<text text-anchor="middle" x="528.48" y="-300.95" font-family="Times,serif" font-size="14.00">Simple(licence)</text>
</g>
<!-- Simple(licence)&#45;&gt;Expr(FormCtx(1_licence)) -->
<g id="edge13" class="edge">
<title>Simple(licence)&#45;&gt;Expr(FormCtx(1_licence))</title>
<path fill="none" stroke="black" d="M528.48,-287.7C528.48,-280.41 528.48,-271.73 528.48,-263.54"/>
<polygon fill="black" stroke="black" points="531.98,-263.62 528.48,-253.62 524.98,-263.62 531.98,-263.62"/>
</g>
<!-- Expr(FormCtx(address1)) -->
<g id="node17" class="node">
<title>Expr(FormCtx(address1))</title>
<ellipse fill="none" stroke="black" cx="2301.48" cy="-306" rx="107.14" ry="18"/>
<text text-anchor="middle" x="2301.48" y="-300.95" font-family="Times,serif" font-size="14.00">Expr(FormCtx(address1))</text>
</g>
<!-- Simple(address1) -->
<g id="node18" class="node">
<title>Simple(address1)</title>
<ellipse fill="none" stroke="black" cx="2301.48" cy="-234" rx="75.92" ry="18"/>
<text text-anchor="middle" x="2301.48" y="-228.95" font-family="Times,serif" font-size="14.00">Simple(address1)</text>
</g>
<!-- Expr(FormCtx(address1))&#45;&gt;Simple(address1) -->
<g id="edge14" class="edge">
<title>Expr(FormCtx(address1))&#45;&gt;Simple(address1)</title>
<path fill="none" stroke="black" d="M2301.48,-287.7C2301.48,-280.41 2301.48,-271.73 2301.48,-263.54"/>
<polygon fill="black" stroke="black" points="2304.98,-263.62 2301.48,-253.62 2297.98,-263.62 2304.98,-263.62"/>
</g>
<!-- Simple(1_addAnotherLicence) -->
<g id="node19" class="node">
<title>Simple(1_addAnotherLicence)</title>
<ellipse fill="none" stroke="black" cx="751.48" cy="-162" rx="125.56" ry="18"/>
<text text-anchor="middle" x="751.48" y="-156.95" font-family="Times,serif" font-size="14.00">Simple(1_addAnotherLicence)</text>
</g>
<!-- Simple(1_addAnotherLicence)&#45;&gt;Expr(Constant(1)) -->
<g id="edge16" class="edge">
<title>Simple(1_addAnotherLicence)&#45;&gt;Expr(Constant(1))</title>
<path fill="none" stroke="black" d="M704.65,-144.85C673.72,-134.19 633.14,-120.19 601.1,-109.14"/>
<polygon fill="black" stroke="black" points="602.61,-105.96 592.01,-106.01 600.33,-112.58 602.61,-105.96"/>
</g>
<!-- Simple(1_addAnotherLicence)&#45;&gt;Expr(FormCtx(dutyType)) -->
<g id="edge19" class="edge">
<title>Simple(1_addAnotherLicence)&#45;&gt;Expr(FormCtx(dutyType))</title>
<path fill="none" stroke="black" d="M672.91,-147.59C602.36,-135.54 499.03,-117.9 426.55,-105.52"/>
<polygon fill="black" stroke="black" points="427.58,-102.15 417.13,-103.92 426.4,-109.05 427.58,-102.15"/>
</g>
<!-- Expr(FormCtx(firstname)) -->
<g id="node21" class="node">
<title>Expr(FormCtx(firstname))</title>
<ellipse fill="none" stroke="black" cx="2536.48" cy="-306" rx="110.21" ry="18"/>
<text text-anchor="middle" x="2536.48" y="-300.95" font-family="Times,serif" font-size="14.00">Expr(FormCtx(firstname))</text>
</g>
<!-- Simple(firstname) -->
<g id="node22" class="node">
<title>Simple(firstname)</title>
<ellipse fill="none" stroke="black" cx="2536.48" cy="-234" rx="78.99" ry="18"/>
<text text-anchor="middle" x="2536.48" y="-228.95" font-family="Times,serif" font-size="14.00">Simple(firstname)</text>
</g>
<!-- Expr(FormCtx(firstname))&#45;&gt;Simple(firstname) -->
<g id="edge21" class="edge">
<title>Expr(FormCtx(firstname))&#45;&gt;Simple(firstname)</title>
<path fill="none" stroke="black" d="M2536.48,-287.7C2536.48,-280.41 2536.48,-271.73 2536.48,-263.54"/>
<polygon fill="black" stroke="black" points="2539.98,-263.62 2536.48,-253.62 2532.98,-263.62 2539.98,-263.62"/>
</g>
</g>
</svg>
